<mxfile host="app.diagrams.net" modified="2020-12-16T02:59:57.495Z" agent="5.0 (Windows NT 10.0; Win64; x64) AppleWebKit/537.36 (KHTML, like Gecko) Chrome/87.0.4280.88 Safari/537.36" etag="zJ4OF_cElUZZX6UJEtkA" version="13.10.3" type="github">
  <diagram id="nqtST1JkCFFfiSLhlLa3" name="Page-1">
    <mxGraphModel dx="1022" dy="437" grid="1" gridSize="10" guides="1" tooltips="1" connect="1" arrows="1" fold="1" page="1" pageScale="1" pageWidth="827" pageHeight="1169" math="0" shadow="0">
      <root>
        <mxCell id="0" />
        <mxCell id="1" parent="0" />
        <mxCell id="tuXMh6HosvvS5GbBu-Tk-1" value="" style="rounded=1;arcSize=10;dashed=1;strokeColor=#6c8ebf;fillColor=#dae8fc;dashPattern=8 3 1 3;strokeWidth=2;" parent="1" vertex="1">
          <mxGeometry x="149" y="350" width="200" height="60" as="geometry" />
        </mxCell>
        <mxCell id="tuXMh6HosvvS5GbBu-Tk-2" value="Master" style="rounded=1;whiteSpace=wrap;html=1;fillColor=#CCE5FF;strokeColor=#6c8ebf;" parent="1" vertex="1">
          <mxGeometry x="229" y="170" width="80" height="40" as="geometry" />
        </mxCell>
        <mxCell id="tuXMh6HosvvS5GbBu-Tk-3" value="Master" style="rounded=1;whiteSpace=wrap;html=1;fillColor=#CCE5FF;strokeColor=#6c8ebf;" parent="1" vertex="1">
          <mxGeometry x="349" y="170" width="80" height="40" as="geometry" />
        </mxCell>
        <mxCell id="tuXMh6HosvvS5GbBu-Tk-4" value="Master" style="rounded=1;whiteSpace=wrap;html=1;fillColor=#CCE5FF;strokeColor=#6c8ebf;" parent="1" vertex="1">
          <mxGeometry x="469" y="170" width="80" height="40" as="geometry" />
        </mxCell>
        <mxCell id="tuXMh6HosvvS5GbBu-Tk-5" value="master proxy" style="rounded=1;whiteSpace=wrap;html=1;" parent="1" vertex="1">
          <mxGeometry x="179" y="250" width="50" height="40" as="geometry" />
        </mxCell>
        <mxCell id="tuXMh6HosvvS5GbBu-Tk-6" value="master proxy" style="rounded=1;whiteSpace=wrap;html=1;" parent="1" vertex="1">
          <mxGeometry x="259" y="250" width="50" height="40" as="geometry" />
        </mxCell>
        <mxCell id="tuXMh6HosvvS5GbBu-Tk-7" value="master proxy" style="rounded=1;whiteSpace=wrap;html=1;" parent="1" vertex="1">
          <mxGeometry x="469" y="250" width="50" height="40" as="geometry" />
        </mxCell>
        <mxCell id="tuXMh6HosvvS5GbBu-Tk-8" value="master proxy" style="rounded=1;whiteSpace=wrap;html=1;" parent="1" vertex="1">
          <mxGeometry x="549" y="250" width="50" height="40" as="geometry" />
        </mxCell>
        <mxCell id="tuXMh6HosvvS5GbBu-Tk-9" value="" style="shape=curlyBracket;whiteSpace=wrap;html=1;rounded=1;rotation=90;size=0.41832313537597654;" parent="1" vertex="1">
          <mxGeometry x="379" width="20" height="320" as="geometry" />
        </mxCell>
        <mxCell id="tuXMh6HosvvS5GbBu-Tk-10" value="&lt;font style=&quot;font-size: 14px&quot;&gt;Raft Group&lt;/font&gt;" style="text;html=1;strokeColor=none;fillColor=none;align=center;verticalAlign=middle;whiteSpace=wrap;rounded=0;" parent="1" vertex="1">
          <mxGeometry x="341.5" y="120" width="95" height="30" as="geometry" />
        </mxCell>
        <mxCell id="tuXMh6HosvvS5GbBu-Tk-11" value="" style="endArrow=none;dashed=1;html=1;" parent="1" edge="1">
          <mxGeometry width="50" height="50" relative="1" as="geometry">
            <mxPoint x="319" y="269" as="sourcePoint" />
            <mxPoint x="459" y="269" as="targetPoint" />
            <Array as="points" />
          </mxGeometry>
        </mxCell>
        <mxCell id="tuXMh6HosvvS5GbBu-Tk-12" value="Client" style="rounded=1;whiteSpace=wrap;html=1;fillColor=#D4E1F5;strokeColor=#9673a6;" parent="1" vertex="1">
          <mxGeometry x="729" y="290" width="80" height="40" as="geometry" />
        </mxCell>
        <mxCell id="tuXMh6HosvvS5GbBu-Tk-13" value="" style="endArrow=none;html=1;curved=1;" parent="1" edge="1">
          <mxGeometry width="50" height="50" relative="1" as="geometry">
            <mxPoint x="659" y="300" as="sourcePoint" />
            <mxPoint x="759" y="200" as="targetPoint" />
            <Array as="points">
              <mxPoint x="709" y="220" />
            </Array>
          </mxGeometry>
        </mxCell>
        <mxCell id="tuXMh6HosvvS5GbBu-Tk-14" value="&lt;font style=&quot;font-size: 14px&quot;&gt;Pull Partition View&lt;/font&gt;" style="text;html=1;align=center;verticalAlign=middle;resizable=0;points=[];;labelBackgroundColor=#ffffff;" parent="tuXMh6HosvvS5GbBu-Tk-13" vertex="1" connectable="0">
          <mxGeometry x="0.2732" y="-26" relative="1" as="geometry">
            <mxPoint x="-15" y="1" as="offset" />
          </mxGeometry>
        </mxCell>
        <mxCell id="tuXMh6HosvvS5GbBu-Tk-15" value="" style="endArrow=none;html=1;curved=1;" parent="1" edge="1">
          <mxGeometry width="50" height="50" relative="1" as="geometry">
            <mxPoint x="779" y="410" as="sourcePoint" />
            <mxPoint x="679" y="320" as="targetPoint" />
            <Array as="points">
              <mxPoint x="699" y="390" />
            </Array>
          </mxGeometry>
        </mxCell>
        <mxCell id="tuXMh6HosvvS5GbBu-Tk-16" value="&lt;font style=&quot;font-size: 14px&quot;&gt;Data Plane&lt;/font&gt;" style="text;html=1;align=center;verticalAlign=middle;resizable=0;points=[];;labelBackgroundColor=#ffffff;" parent="tuXMh6HosvvS5GbBu-Tk-15" vertex="1" connectable="0">
          <mxGeometry x="-0.1252" y="-16" relative="1" as="geometry">
            <mxPoint as="offset" />
          </mxGeometry>
        </mxCell>
        <mxCell id="tuXMh6HosvvS5GbBu-Tk-17" value="" style="endArrow=none;dashed=1;html=1;" parent="1" edge="1">
          <mxGeometry width="50" height="50" relative="1" as="geometry">
            <mxPoint x="79" y="309.5" as="sourcePoint" />
            <mxPoint x="709" y="310" as="targetPoint" />
          </mxGeometry>
        </mxCell>
        <mxCell id="tuXMh6HosvvS5GbBu-Tk-18" value="meta node" style="rounded=1;whiteSpace=wrap;html=1;fillColor=#fff2cc;strokeColor=#d6b656;" parent="1" vertex="1">
          <mxGeometry x="159" y="360" width="50" height="40" as="geometry" />
        </mxCell>
        <mxCell id="tuXMh6HosvvS5GbBu-Tk-19" value="meta node" style="rounded=1;whiteSpace=wrap;html=1;fillColor=#fff2cc;strokeColor=#d6b656;" parent="1" vertex="1">
          <mxGeometry x="224" y="360" width="50" height="40" as="geometry" />
        </mxCell>
        <mxCell id="tuXMh6HosvvS5GbBu-Tk-20" value="meta node" style="rounded=1;whiteSpace=wrap;html=1;fillColor=#fff2cc;strokeColor=#d6b656;" parent="1" vertex="1">
          <mxGeometry x="289" y="360" width="50" height="40" as="geometry" />
        </mxCell>
        <mxCell id="tuXMh6HosvvS5GbBu-Tk-21" value="meta node" style="rounded=1;whiteSpace=wrap;html=1;fillColor=#fff2cc;strokeColor=#d6b656;" parent="1" vertex="1">
          <mxGeometry x="159" y="420" width="50" height="40" as="geometry" />
        </mxCell>
        <mxCell id="tuXMh6HosvvS5GbBu-Tk-22" value="meta node" style="rounded=1;whiteSpace=wrap;html=1;fillColor=#A9C4EB;strokeColor=#d6b656;" parent="1" vertex="1">
          <mxGeometry x="224" y="420" width="50" height="40" as="geometry" />
        </mxCell>
        <mxCell id="tuXMh6HosvvS5GbBu-Tk-23" value="meta node" style="rounded=1;whiteSpace=wrap;html=1;fillColor=#fff2cc;strokeColor=#d6b656;" parent="1" vertex="1">
          <mxGeometry x="289" y="420" width="50" height="40" as="geometry" />
        </mxCell>
        <mxCell id="tuXMh6HosvvS5GbBu-Tk-24" value="meta node" style="rounded=1;whiteSpace=wrap;html=1;fillColor=#A9C4EB;strokeColor=#d6b656;" parent="1" vertex="1">
          <mxGeometry x="159" y="520" width="50" height="40" as="geometry" />
        </mxCell>
        <mxCell id="tuXMh6HosvvS5GbBu-Tk-25" value="meta node" style="rounded=1;whiteSpace=wrap;html=1;fillColor=#fff2cc;strokeColor=#d6b656;" parent="1" vertex="1">
          <mxGeometry x="224" y="520" width="50" height="40" as="geometry" />
        </mxCell>
        <mxCell id="tuXMh6HosvvS5GbBu-Tk-26" value="meta node" style="rounded=1;whiteSpace=wrap;html=1;fillColor=#A9C4EB;strokeColor=#d6b656;" parent="1" vertex="1">
          <mxGeometry x="289" y="520" width="50" height="40" as="geometry" />
        </mxCell>
        <mxCell id="tuXMh6HosvvS5GbBu-Tk-27" value="" style="endArrow=none;dashed=1;html=1;" parent="1" edge="1">
          <mxGeometry width="50" height="50" relative="1" as="geometry">
            <mxPoint x="248" y="510" as="sourcePoint" />
            <mxPoint x="248" y="470" as="targetPoint" />
          </mxGeometry>
        </mxCell>
        <mxCell id="tuXMh6HosvvS5GbBu-Tk-28" value="Meta Partition" style="text;html=1;strokeColor=none;fillColor=none;align=center;verticalAlign=middle;whiteSpace=wrap;rounded=0;" parent="1" vertex="1">
          <mxGeometry x="89" y="370" width="40" height="20" as="geometry" />
        </mxCell>
        <mxCell id="tuXMh6HosvvS5GbBu-Tk-29" value="Data Partition" style="text;html=1;strokeColor=none;fillColor=none;align=center;verticalAlign=middle;whiteSpace=wrap;rounded=0;" parent="1" vertex="1">
          <mxGeometry x="629" y="370" width="40" height="20" as="geometry" />
        </mxCell>
        <mxCell id="tuXMh6HosvvS5GbBu-Tk-30" value="" style="group;" parent="1" vertex="1" connectable="0">
          <mxGeometry x="409" y="350" width="200" height="210" as="geometry" />
        </mxCell>
        <mxCell id="tuXMh6HosvvS5GbBu-Tk-31" value="" style="rounded=1;arcSize=10;dashed=1;strokeColor=#6c8ebf;fillColor=#dae8fc;dashPattern=8 3 1 3;strokeWidth=2;" parent="tuXMh6HosvvS5GbBu-Tk-30" vertex="1">
          <mxGeometry width="200" height="60" as="geometry" />
        </mxCell>
        <mxCell id="tuXMh6HosvvS5GbBu-Tk-32" value="data node" style="rounded=1;whiteSpace=wrap;html=1;fillColor=#99CCFF;strokeColor=#82b366;" parent="tuXMh6HosvvS5GbBu-Tk-30" vertex="1">
          <mxGeometry x="10" y="10" width="50" height="40" as="geometry" />
        </mxCell>
        <mxCell id="tuXMh6HosvvS5GbBu-Tk-33" value="data node" style="rounded=1;whiteSpace=wrap;html=1;fillColor=#d5e8d4;strokeColor=#82b366;" parent="tuXMh6HosvvS5GbBu-Tk-30" vertex="1">
          <mxGeometry x="75" y="10" width="50" height="40" as="geometry" />
        </mxCell>
        <mxCell id="tuXMh6HosvvS5GbBu-Tk-34" value="data node" style="rounded=1;whiteSpace=wrap;html=1;fillColor=#d5e8d4;strokeColor=#82b366;" parent="tuXMh6HosvvS5GbBu-Tk-30" vertex="1">
          <mxGeometry x="140" y="10" width="50" height="40" as="geometry" />
        </mxCell>
        <mxCell id="tuXMh6HosvvS5GbBu-Tk-35" value="data node" style="rounded=1;whiteSpace=wrap;html=1;fillColor=#99CCFF;strokeColor=#82b366;" parent="tuXMh6HosvvS5GbBu-Tk-30" vertex="1">
          <mxGeometry x="10" y="70" width="50" height="40" as="geometry" />
        </mxCell>
        <mxCell id="tuXMh6HosvvS5GbBu-Tk-36" value="data node" style="rounded=1;whiteSpace=wrap;html=1;fillColor=#d5e8d4;strokeColor=#82b366;" parent="tuXMh6HosvvS5GbBu-Tk-30" vertex="1">
          <mxGeometry x="75" y="70" width="50" height="40" as="geometry" />
        </mxCell>
        <mxCell id="tuXMh6HosvvS5GbBu-Tk-37" value="data node" style="rounded=1;whiteSpace=wrap;html=1;fillColor=#d5e8d4;strokeColor=#82b366;" parent="tuXMh6HosvvS5GbBu-Tk-30" vertex="1">
          <mxGeometry x="140" y="70" width="50" height="40" as="geometry" />
        </mxCell>
        <mxCell id="tuXMh6HosvvS5GbBu-Tk-38" value="data node" style="rounded=1;whiteSpace=wrap;html=1;fillColor=#99CCFF;strokeColor=#82b366;" parent="tuXMh6HosvvS5GbBu-Tk-30" vertex="1">
          <mxGeometry x="10" y="170" width="50" height="40" as="geometry" />
        </mxCell>
        <mxCell id="tuXMh6HosvvS5GbBu-Tk-39" value="data node" style="rounded=1;whiteSpace=wrap;html=1;fillColor=#99CCFF;strokeColor=#82b366;" parent="tuXMh6HosvvS5GbBu-Tk-30" vertex="1">
          <mxGeometry x="75" y="170" width="50" height="40" as="geometry" />
        </mxCell>
        <mxCell id="tuXMh6HosvvS5GbBu-Tk-40" value="data node" style="rounded=1;whiteSpace=wrap;html=1;fillColor=#99CCFF;strokeColor=#82b366;" parent="tuXMh6HosvvS5GbBu-Tk-30" vertex="1">
          <mxGeometry x="140" y="170" width="50" height="40" as="geometry" />
        </mxCell>
        <mxCell id="tuXMh6HosvvS5GbBu-Tk-41" value="" style="endArrow=none;dashed=1;html=1;" parent="tuXMh6HosvvS5GbBu-Tk-30" edge="1">
          <mxGeometry width="50" height="50" relative="1" as="geometry">
            <mxPoint x="99" y="160" as="sourcePoint" />
            <mxPoint x="99" y="120" as="targetPoint" />
          </mxGeometry>
        </mxCell>
        <mxCell id="W4pxW1vRzuRNmHUyPvlg-12" value="data node" style="rounded=1;whiteSpace=wrap;html=1;fillColor=#d5e8d4;strokeColor=#82b366;" vertex="1" parent="tuXMh6HosvvS5GbBu-Tk-30">
          <mxGeometry x="75" y="10" width="50" height="40" as="geometry" />
        </mxCell>
        <mxCell id="W4pxW1vRzuRNmHUyPvlg-13" value="data node" style="rounded=1;whiteSpace=wrap;html=1;fillColor=#d5e8d4;strokeColor=#82b366;" vertex="1" parent="tuXMh6HosvvS5GbBu-Tk-30">
          <mxGeometry x="140" y="10" width="50" height="40" as="geometry" />
        </mxCell>
        <mxCell id="W4pxW1vRzuRNmHUyPvlg-14" value="data node" style="rounded=1;whiteSpace=wrap;html=1;fillColor=#d5e8d4;strokeColor=#82b366;" vertex="1" parent="tuXMh6HosvvS5GbBu-Tk-30">
          <mxGeometry x="75" y="10" width="50" height="40" as="geometry" />
        </mxCell>
        <mxCell id="W4pxW1vRzuRNmHUyPvlg-15" value="data node" style="rounded=1;whiteSpace=wrap;html=1;fillColor=#d5e8d4;strokeColor=#82b366;" vertex="1" parent="tuXMh6HosvvS5GbBu-Tk-30">
          <mxGeometry x="140" y="10" width="50" height="40" as="geometry" />
        </mxCell>
        <mxCell id="W4pxW1vRzuRNmHUyPvlg-16" value="data node" style="rounded=1;whiteSpace=wrap;html=1;fillColor=#99CCFF;strokeColor=#82b366;" vertex="1" parent="tuXMh6HosvvS5GbBu-Tk-30">
          <mxGeometry x="75" y="10" width="50" height="40" as="geometry" />
        </mxCell>
        <mxCell id="W4pxW1vRzuRNmHUyPvlg-17" value="data node" style="rounded=1;whiteSpace=wrap;html=1;fillColor=#99CCFF;strokeColor=#82b366;" vertex="1" parent="tuXMh6HosvvS5GbBu-Tk-30">
          <mxGeometry x="140" y="10" width="50" height="40" as="geometry" />
        </mxCell>
        <mxCell id="W4pxW1vRzuRNmHUyPvlg-18" value="data node" style="rounded=1;whiteSpace=wrap;html=1;fillColor=#99CCFF;strokeColor=#82b366;" vertex="1" parent="tuXMh6HosvvS5GbBu-Tk-30">
          <mxGeometry x="140" y="70" width="50" height="40" as="geometry" />
        </mxCell>
        <mxCell id="W4pxW1vRzuRNmHUyPvlg-19" value="data node" style="rounded=1;whiteSpace=wrap;html=1;fillColor=#99CCFF;strokeColor=#82b366;" vertex="1" parent="tuXMh6HosvvS5GbBu-Tk-30">
          <mxGeometry x="75" y="70" width="50" height="40" as="geometry" />
        </mxCell>
        <mxCell id="tuXMh6HosvvS5GbBu-Tk-42" value="" style="rounded=1;arcSize=10;dashed=1;strokeColor=#000000;fillColor=none;gradientColor=none;dashPattern=8 3 1 3;strokeWidth=2;" parent="1" vertex="1">
          <mxGeometry x="154" y="240" width="465" height="60" as="geometry" />
        </mxCell>
        <mxCell id="tuXMh6HosvvS5GbBu-Tk-43" value="Admin" style="rounded=1;whiteSpace=wrap;html=1;fillColor=#CCE5FF;strokeColor=#b85450;" parent="1" vertex="1">
          <mxGeometry y="190" width="80" height="40" as="geometry" />
        </mxCell>
        <mxCell id="tuXMh6HosvvS5GbBu-Tk-44" value="" style="endArrow=none;html=1;curved=1;" parent="1" edge="1">
          <mxGeometry width="50" height="50" relative="1" as="geometry">
            <mxPoint x="70" y="280" as="sourcePoint" />
            <mxPoint x="104" y="140" as="targetPoint" />
            <Array as="points">
              <mxPoint x="124" y="210" />
            </Array>
          </mxGeometry>
        </mxCell>
        <mxCell id="tuXMh6HosvvS5GbBu-Tk-45" value="&lt;span style=&quot;font-size: 14px&quot;&gt;http requests&lt;/span&gt;" style="text;html=1;align=center;verticalAlign=middle;resizable=0;points=[];;labelBackgroundColor=#ffffff;" parent="tuXMh6HosvvS5GbBu-Tk-44" vertex="1" connectable="0">
          <mxGeometry x="-0.1252" y="-16" relative="1" as="geometry">
            <mxPoint x="14" y="-23.5" as="offset" />
          </mxGeometry>
        </mxCell>
        <mxCell id="W4pxW1vRzuRNmHUyPvlg-1" value="meta node" style="rounded=1;whiteSpace=wrap;html=1;fillColor=#fff2cc;strokeColor=#d6b656;" vertex="1" parent="1">
          <mxGeometry x="224" y="360" width="50" height="40" as="geometry" />
        </mxCell>
        <mxCell id="W4pxW1vRzuRNmHUyPvlg-2" value="meta node" style="rounded=1;whiteSpace=wrap;html=1;fillColor=#fff2cc;strokeColor=#d6b656;" vertex="1" parent="1">
          <mxGeometry x="159" y="360" width="50" height="40" as="geometry" />
        </mxCell>
        <mxCell id="W4pxW1vRzuRNmHUyPvlg-3" value="meta node" style="rounded=1;whiteSpace=wrap;html=1;fillColor=#fff2cc;strokeColor=#d6b656;" vertex="1" parent="1">
          <mxGeometry x="289" y="360" width="50" height="40" as="geometry" />
        </mxCell>
        <mxCell id="W4pxW1vRzuRNmHUyPvlg-4" value="meta node" style="rounded=1;whiteSpace=wrap;html=1;fillColor=#fff2cc;strokeColor=#d6b656;" vertex="1" parent="1">
          <mxGeometry x="289" y="420" width="50" height="40" as="geometry" />
        </mxCell>
        <mxCell id="W4pxW1vRzuRNmHUyPvlg-5" value="meta node" style="rounded=1;whiteSpace=wrap;html=1;fillColor=#fff2cc;strokeColor=#d6b656;" vertex="1" parent="1">
          <mxGeometry x="159" y="420" width="50" height="40" as="geometry" />
        </mxCell>
        <mxCell id="W4pxW1vRzuRNmHUyPvlg-6" value="meta node" style="rounded=1;whiteSpace=wrap;html=1;fillColor=#A9C4EB;strokeColor=#d6b656;" vertex="1" parent="1">
          <mxGeometry x="224" y="360" width="50" height="40" as="geometry" />
        </mxCell>
        <mxCell id="W4pxW1vRzuRNmHUyPvlg-7" value="meta node" style="rounded=1;whiteSpace=wrap;html=1;fillColor=#A9C4EB;strokeColor=#d6b656;" vertex="1" parent="1">
          <mxGeometry x="159" y="360" width="50" height="40" as="geometry" />
        </mxCell>
        <mxCell id="W4pxW1vRzuRNmHUyPvlg-8" value="meta node" style="rounded=1;whiteSpace=wrap;html=1;fillColor=#A9C4EB;strokeColor=#d6b656;" vertex="1" parent="1">
          <mxGeometry x="289" y="360" width="50" height="40" as="geometry" />
        </mxCell>
        <mxCell id="W4pxW1vRzuRNmHUyPvlg-9" value="meta node" style="rounded=1;whiteSpace=wrap;html=1;fillColor=#A9C4EB;strokeColor=#d6b656;" vertex="1" parent="1">
          <mxGeometry x="289" y="420" width="50" height="40" as="geometry" />
        </mxCell>
        <mxCell id="W4pxW1vRzuRNmHUyPvlg-10" value="meta node" style="rounded=1;whiteSpace=wrap;html=1;fillColor=#A9C4EB;strokeColor=#d6b656;" vertex="1" parent="1">
          <mxGeometry x="159" y="420" width="50" height="40" as="geometry" />
        </mxCell>
        <mxCell id="W4pxW1vRzuRNmHUyPvlg-11" value="meta node" style="rounded=1;whiteSpace=wrap;html=1;fillColor=#A9C4EB;strokeColor=#d6b656;" vertex="1" parent="1">
          <mxGeometry x="224" y="520" width="50" height="40" as="geometry" />
        </mxCell>
      </root>
    </mxGraphModel>
  </diagram>
</mxfile>
